<svg width="560" height="146" xmlns="http://www.w3.org/2000/svg"><g fill="none" fill-rule="evenodd"><path d="M494.597 14.252c3.072 2.068 6.468 4.628 9.205 7.483 4.855 5.066 9.67 10.778 13.81 16.493 2.796 3.86 6.423 9.718 8.405 14.028 2.638 5.734 4.2 9.752 5.647 16.053 2.04 8.876 1.759 17.986-.313 26.574-3.047 12.634-12.8 23.206-22.546 31.787-7.624 6.713-17.874 11.104-26.88 14.33l-.925-2.462c8.925-3.196 18.384-7.463 25.69-13.904 9.4-8.286 18.08-18.39 21.827-30.434 2.28-7.33 2.81-15.373 1.613-23.16-1.048-6.823-3.684-13.66-6.251-19.878-2.111-5.11-4.572-9.091-7.575-13.284-3.806-5.317-7.989-10.502-12.435-15.236-2.878-3.065-6.727-5.832-9.819-7.912l.547-.478Z" fill="#497557" fill-rule="nonzero"/><path d="M498.513 133.47s6.326-2.003 11.346-1.413c7.97.937 8.705 5.894 8.705 5.894s-3.197 1.988-10.055 1.233c-8.034-.886-9.996-5.714-9.996-5.714ZM509.271 126.068s5.331-2.533 10.386-2.496c8.75.065 9.275 4.721 9.275 4.721s-3.168 2.29-10.176 2.195c-8.081-.108-9.485-4.42-9.485-4.42ZM517.255 118.283s5.07-4.45 9.972-5.681c8.489-2.131 11.3 2.817 11.3 2.817s-3.155 3.792-9.964 5.458c-7.851 1.92-11.308-2.594-11.308-2.594ZM526.248 106.292s4.335-4.578 10.27-6.404c7.744-2.384 11.384 2.296 11.49 2.413 0 0-3.173 4.001-9.794 5.755-8.88 2.353-11.966-1.764-11.966-1.764ZM530.534 96.75s4.038-6.16 10.06-9.067c5.85-2.825 10.123-.42 10.23-.324 0 0-3.005 5.5-8.534 8.137-7.511 3.582-11.756 1.253-11.756 1.253ZM531.829 88.375c2.154-2.03 2.315-7.55 5.395-12.03 4.297-6.25 11.385-5.796 11.49-5.738 0 0-.758 7.786-6.131 12.491-5.71 5.001-10.754 5.277-10.754 5.277ZM532.434 75.252s-.21-6.767 1.572-11.905c2.485-7.169 9.268-8.576 9.386-8.548 0 0 1.1 7.665-2.832 13.632-4.179 6.341-8.126 6.821-8.126 6.821ZM529.56 62.57s-1.354-5.68-.668-11.076c1.033-8.133 7.35-9.855 7.471-9.843 0 0 2.166 7.533-.915 13.982-3.274 6.854-5.888 6.938-5.888 6.938ZM523.996 48.954s-2.2-5.138-1.918-10.57c.39-7.54 5.49-10.725 5.611-10.729 0 0 4.917 4.441 2.093 14.001-1.713 5.799-5.786 7.298-5.786 7.298ZM516.902 37.76s-3.27-5.046-4.174-10.41c-.849-5.035 1.19-10.52 1.646-11.025 0 0 5.32 2.342 5.12 11.332-.133 6.046-2.592 10.103-2.592 10.103ZM508.212 26.957s-3.898-4.159-4.914-9.845c-.841-4.713.006-9.834.893-11.112 0 0 5.085 3.165 5.454 11.169.279 6.041-1.03 8.916-1.433 9.788ZM501.909 20.332s-7.43.27-11.122-1.879c-4.133-2.404-8.19-7.621-8.51-9.145 0 0 6.508-2.858 12.575 2.363 4.579 3.94 6.7 7.77 7.057 8.661ZM510.095 29.311s-3.554-4.168-9.66-5.245c-4.707-.83-8.325-.063-10.649 1.293 0 0 3.584 4.6 10.454 5.234 6.011.555 8.972-.907 9.855-1.282ZM517.424 38.922s-3.384-3.998-9.49-5.075c-4.708-.83-6.968.021-9.29 1.377 0 0 2.862 4.388 9.731 5.022 6.011.555 8.165-.95 9.049-1.324ZM524.567 51.458s-3.16-4.927-8.876-7.335c-5.857-2.468-8.865-1.29-11.384-.348.803 1.208 4.09 6.24 9.42 7.75 5.81 1.646 9.907.153 10.84-.067ZM528.786 62.592s-2.8-5.141-8.33-7.952c-5.665-2.881-8.75-1.922-11.33-1.163.716 1.262 3.635 6.516 8.844 8.405 5.676 2.058 9.87.863 10.816.71ZM531.005 75.825c-2.424-3.114-3.742-6.46-7.471-9.792-4.595-4.104-8.538-2.796-11.214-2.53 1.318 2.478 3.295 6.398 7.383 9.353 4.896 3.538 10.343 2.942 11.302 2.969ZM530.72 88.016c-2.062-3.365-3.04-5.989-6.374-9.717-4.108-4.594-8.002-3.778-10.69-3.815 1.032 2.611 2.771 6.516 6.503 9.91 4.47 4.065 9.61 3.488 10.56 3.622ZM528.064 97.738c-3.101-4.796-2.71-5.882-5.745-9.858-3.26-4.271-7.377-4.154-10.054-4.406.82 2.685 2.045 6.317 5.52 9.975 3.705 3.9 7.56 3.398 10.278 4.289ZM522.97 107.263c-1.954-4.243-1.617-6.892-3.41-9.9-2.931-4.92-5.805-5.132-8.482-5.384 2.135 6.129 1.64 6.157 3.991 9.89 2.287 3.632 5.395 4.121 7.901 5.395ZM516.818 115.274c-1.114-4.538.017-5.927-1.172-9.221-1.945-5.388-4.726-6.144-7.306-6.901.296 3.616-.152 5.911 1.872 9.831 1.429 2.769 4.387 4.564 6.606 6.29ZM504.447 106.364s-2.234 4.322-1.492 9.33c1.051 7.097 4.837 8.16 4.837 8.16s2.156-3.225 1.937-9.77c-.234-6.99-5.282-7.72-5.282-7.72ZM496.379 113.593s-2.236 4.376-1.747 9.416c.627 6.459 4.158 8.075 4.158 8.075s2.224-3.606 2.319-9.048c.144-8.31-4.73-8.443-4.73-8.443Z" fill="#497557" fill-rule="nonzero"/><g fill="#497557" fill-rule="nonzero"><path d="M61.22 14.252c-3.073 2.067-6.469 4.627-9.205 7.482-4.856 5.067-9.672 10.778-13.81 16.493-2.796 3.86-6.424 9.719-8.406 14.028-2.637 5.735-4.2 9.752-5.647 16.053-2.04 8.876-1.758 17.986.313 26.574 3.047 12.635 12.8 23.206 22.546 31.787 7.624 6.713 17.874 11.104 26.88 14.33l.931-2.463c-8.924-3.195-18.382-7.462-25.689-13.903-9.4-8.286-18.081-18.392-21.826-30.433-2.281-7.33-2.81-15.373-1.614-23.161 1.048-6.823 3.684-13.66 6.252-19.877 2.11-5.11 4.572-9.092 7.574-13.285 3.806-5.317 7.989-10.502 12.435-15.236 2.879-3.065 6.728-5.831 9.82-7.911l-.555-.478Z"/><path d="M57.316 133.47s-6.326-2.004-11.346-1.414c-7.97.937-8.705 5.894-8.705 5.894s3.198 1.988 10.056 1.233c8.034-.886 9.995-5.714 9.995-5.714ZM46.543 126.067s-5.33-2.533-10.385-2.496c-8.75.065-9.275 4.721-9.275 4.721s3.167 2.29 10.175 2.195c8.082-.108 9.485-4.42 9.485-4.42ZM38.574 118.282s-5.069-4.45-9.972-5.681c-8.488-2.13-11.3 2.817-11.3 2.817s3.156 3.792 9.964 5.458c7.852 1.92 11.308-2.594 11.308-2.594ZM29.575 106.291s-4.335-4.578-10.27-6.404c-7.744-2.384-11.384 2.296-11.49 2.413 0 0 3.173 4.001 9.794 5.755 8.88 2.353 11.966-1.764 11.966-1.764ZM25.288 96.748s-4.037-6.159-10.059-9.066C9.38 84.856 5.106 87.262 5 87.357c0 0 3.005 5.501 8.533 8.138 7.512 3.581 11.756 1.253 11.756 1.253ZM23.987 88.374c-2.155-2.03-2.315-7.55-5.395-12.03-4.297-6.249-11.385-5.796-11.49-5.737 0 0 .758 7.785 6.131 12.491 5.71 5 10.754 5.277 10.754 5.277ZM23.392 75.251s.21-6.767-1.572-11.905c-2.485-7.169-9.268-8.576-9.386-8.548 0 0-1.1 7.665 2.832 13.632 4.18 6.341 8.126 6.821 8.126 6.821ZM26.265 62.57s1.353-5.681.668-11.077c-1.034-8.133-7.351-9.855-7.472-9.843 0 0-2.165 7.533.916 13.982 3.274 6.854 5.888 6.938 5.888 6.938ZM31.83 48.954s2.2-5.14 1.919-10.571c-.392-7.54-5.491-10.724-5.612-10.729 0 0-4.917 4.441-2.093 14.001 1.713 5.8 5.787 7.299 5.787 7.299ZM38.91 37.759s3.27-5.046 4.174-10.41c.85-5.035-1.19-10.52-1.645-11.025 0 0-5.32 2.343-5.12 11.332.133 6.046 2.591 10.103 2.591 10.103ZM47.609 26.956s3.898-4.158 4.914-9.845c.84-4.712-.007-9.833-.893-11.111 0 0-5.085 3.165-5.454 11.169-.279 6.041 1.03 8.916 1.433 9.788ZM53.92 20.331s7.428.27 11.12-1.878c4.134-2.404 8.19-7.622 8.51-9.146 0 0-6.507-2.858-12.574 2.363-4.58 3.941-6.7 7.77-7.057 8.661ZM45.733 29.31s3.554-4.168 9.66-5.244c4.707-.83 8.325-.064 10.649 1.292 0 0-3.584 4.6-10.454 5.234-6.011.555-8.972-.906-9.855-1.281ZM38.39 38.92s3.383-3.997 9.49-5.074c4.706-.83 6.966.021 9.29 1.378 0 0-2.863 4.387-9.732 5.021-6.012.555-8.166-.95-9.049-1.324ZM31.26 51.457s3.162-4.927 8.877-7.335c5.857-2.468 8.865-1.29 11.384-.347-.803 1.207-4.09 6.239-9.42 7.749-5.81 1.646-9.907.153-10.84-.067ZM27.03 62.592s2.8-5.142 8.33-7.953c5.665-2.881 8.75-1.922 11.33-1.163-.716 1.262-3.635 6.517-8.844 8.405-5.676 2.059-9.87.863-10.816.71ZM24.808 75.824c2.424-3.114 3.741-6.46 7.471-9.792 4.595-4.104 8.538-2.796 11.213-2.53-1.317 2.478-3.295 6.399-7.382 9.353-4.896 3.538-10.344 2.942-11.302 2.969ZM25.109 88.015c2.06-3.365 3.039-5.988 6.373-9.717 4.107-4.593 8.002-3.778 10.69-3.814-1.032 2.61-2.771 6.516-6.503 9.91-4.47 4.064-9.61 3.487-10.56 3.621ZM27.76 97.737c3.1-4.796 2.709-5.882 5.744-9.858 3.26-4.271 7.377-4.154 10.054-4.406-.82 2.685-2.045 6.317-5.52 9.975-3.706 3.9-7.56 3.398-10.279 4.289ZM32.854 107.263c1.955-4.244 1.617-6.893 3.41-9.9 2.932-4.92 5.806-5.132 8.483-5.385-2.135 6.129-1.641 6.157-3.992 9.89-2.287 3.633-5.395 4.121-7.9 5.395ZM38.996 115.273c1.114-4.538-.017-5.927 1.172-9.221 1.945-5.388 4.727-6.144 7.307-6.901-.297 3.617.151 5.911-1.872 9.832-1.43 2.768-4.388 4.563-6.607 6.29ZM51.376 106.363s2.234 4.322 1.492 9.33c-1.051 7.097-4.837 8.16-4.837 8.16s-2.156-3.225-1.937-9.77c.234-6.99 5.282-7.72 5.282-7.72ZM59.44 113.592s2.237 4.376 1.748 9.416c-.627 6.459-4.158 8.075-4.158 8.075s-2.224-3.606-2.32-9.047c-.144-8.31 4.731-8.444 4.731-8.444Z"/></g><path d="M121.012 93v-5.934h-18.485V75.801H120v-5.688h-17.473V59.477h18.485v-5.934h-25.54V93h25.54Zm16.515.574c2.097 0 3.92-.487 5.47-1.463 1.549-.975 2.733-2.32 3.554-4.033h.164V93h6.781V53.543h-6.781v15.45h-.164c-.82-1.733-2.02-3.095-3.596-4.089-1.577-.993-3.395-1.49-5.455-1.49-2.424 0-4.53.606-6.316 1.818-1.787 1.213-3.172 2.944-4.157 5.196-.984 2.251-1.476 4.935-1.476 8.052v.028c0 3.099.487 5.778 1.463 8.039.975 2.26 2.36 3.997 4.156 5.209 1.795 1.212 3.915 1.818 6.357 1.818Zm2.051-5.715c-1.458 0-2.72-.378-3.787-1.134-1.066-.757-1.887-1.837-2.46-3.24-.575-1.404-.862-3.063-.862-4.977v-.028c0-1.932.287-3.59.861-4.976.574-1.386 1.395-2.456 2.461-3.213 1.066-.756 2.329-1.135 3.787-1.135 1.404 0 2.639.383 3.705 1.149 1.067.765 1.905 1.845 2.516 3.24.61 1.394.916 3.04.916 4.935v.028c0 1.896-.3 3.545-.903 4.949-.601 1.404-1.44 2.488-2.515 3.254-1.076.766-2.315 1.148-3.719 1.148Zm23.543-28c1.076 0 1.978-.364 2.707-1.093.73-.73 1.094-1.605 1.094-2.625 0-1.04-.365-1.919-1.094-2.639-.729-.72-1.631-1.08-2.707-1.08-1.057 0-1.95.36-2.68 1.08-.729.72-1.093 1.6-1.093 2.639 0 1.02.364 1.895 1.093 2.625.73.729 1.623 1.093 2.68 1.093ZM166.54 93V64.016h-6.809V93h6.81Zm16.816.574c.711 0 1.354-.027 1.928-.082a37.14 37.14 0 0 0 1.463-.164v-5.113c-.237.018-.488.04-.752.068-.264.028-.57.041-.916.041-1.221 0-2.146-.269-2.775-.806-.63-.538-.944-1.509-.944-2.913v-15.34h5.387v-5.25h-5.387V56.66h-6.918v7.356h-4.101v5.25h4.101v15.886c0 2.99.734 5.141 2.202 6.453 1.467 1.313 3.705 1.97 6.712 1.97Zm20.59 0c2.844 0 5.314-.601 7.41-1.804 2.097-1.204 3.724-2.93 4.881-5.182 1.158-2.251 1.737-4.945 1.737-8.08v-.055c0-3.117-.584-5.797-1.75-8.039-1.167-2.242-2.803-3.97-4.909-5.182-2.105-1.212-4.57-1.818-7.396-1.818-2.807 0-5.26.606-7.356 1.818-2.096 1.213-3.727 2.944-4.894 5.196-1.167 2.251-1.75 4.926-1.75 8.025v.055c0 3.117.579 5.801 1.736 8.053 1.158 2.25 2.785 3.983 4.881 5.195 2.097 1.212 4.567 1.818 7.41 1.818Zm.028-5.496c-1.44 0-2.694-.374-3.76-1.121-1.067-.747-1.896-1.837-2.488-3.268-.593-1.43-.89-3.158-.89-5.181v-.055c0-2.005.297-3.719.89-5.14.592-1.422 1.421-2.507 2.488-3.254 1.066-.748 2.301-1.121 3.705-1.121 1.44 0 2.693.373 3.76 1.12 1.066.748 1.891 1.833 2.474 3.254.584 1.422.875 3.136.875 5.141v.055c0 2.023-.287 3.75-.861 5.181-.574 1.431-1.39 2.52-2.447 3.268-1.058.747-2.306 1.121-3.746 1.121ZM229.403 93V76.184c0-1.44.245-2.662.738-3.664.492-1.003 1.203-1.764 2.132-2.284.93-.52 2.033-.779 3.309-.779.583 0 1.126.036 1.627.11.501.072.889.163 1.162.273v-6.153a8.505 8.505 0 0 0-2.16-.273c-1.677 0-3.094.497-4.252 1.49-1.158.994-1.955 2.366-2.393 4.116h-.164v-5.004h-6.78V93h6.78Zm24.062.574c2.37 0 4.47-.378 6.303-1.135 1.832-.756 3.267-1.822 4.306-3.199 1.04-1.376 1.559-2.976 1.559-4.799v-.027c0-2.096-.638-3.769-1.914-5.018-1.276-1.248-3.418-2.21-6.426-2.884l-4.813-1.067c-1.494-.346-2.556-.802-3.185-1.367s-.943-1.258-.943-2.078v-.027c0-.711.196-1.331.587-1.86.392-.528.957-.939 1.696-1.23.738-.292 1.608-.438 2.611-.438 1.586 0 2.835.379 3.746 1.135.912.757 1.44 1.718 1.586 2.885l.027.219h6.344l-.027-.301c-.073-1.677-.579-3.19-1.518-4.54-.939-1.348-2.265-2.424-3.978-3.226-1.714-.802-3.774-1.203-6.18-1.203-2.315 0-4.348.374-6.098 1.121-1.75.748-3.108 1.787-4.074 3.117-.966 1.331-1.449 2.88-1.449 4.649v.027c0 2.151.697 3.91 2.092 5.277 1.394 1.368 3.477 2.352 6.248 2.954l4.812 1.066c1.513.346 2.562.788 3.145 1.326.583.538.875 1.235.875 2.092v.027c0 .711-.214 1.331-.643 1.86-.428.528-1.034.93-1.818 1.203s-1.732.41-2.844.41c-1.732 0-3.076-.346-4.033-1.04-.957-.692-1.563-1.667-1.818-2.925l-.055-.246h-6.7l.028.246c.219 1.787.834 3.359 1.846 4.717 1.011 1.358 2.415 2.41 4.21 3.158 1.796.748 3.961 1.121 6.495 1.121Zm19.332-25.539 4.02-14.492h-6.618l-2.133 14.492h4.73Zm38.61 25.649c3.025 0 5.741-.58 8.148-1.737 2.406-1.157 4.366-2.766 5.879-4.826 1.513-2.06 2.433-4.43 2.761-7.11l.055-.3h-6.918l-.082.273c-.42 1.623-1.085 3-1.996 4.13a8.948 8.948 0 0 1-3.35 2.583c-1.321.593-2.82.889-4.498.889-2.278 0-4.27-.588-5.974-1.764-1.705-1.176-3.022-2.834-3.952-4.976-.93-2.142-1.394-4.672-1.394-7.588v-.028c0-2.934.465-5.464 1.394-7.587.93-2.124 2.243-3.77 3.938-4.936 1.695-1.167 3.691-1.75 5.988-1.75 1.714 0 3.236.3 4.567.902 1.33.602 2.433 1.45 3.308 2.543.875 1.094 1.504 2.397 1.887 3.91l.137.52h6.918l-.028-.273c-.346-2.68-1.276-5.05-2.789-7.11-1.513-2.06-3.468-3.673-5.865-4.84-2.397-1.166-5.109-1.75-8.135-1.75-3.773 0-7.045.825-9.816 2.475-2.771 1.65-4.913 3.997-6.426 7.041-1.513 3.044-2.27 6.663-2.27 10.855v.028c0 4.193.752 7.816 2.256 10.869 1.504 3.053 3.646 5.41 6.426 7.068 2.78 1.66 6.057 2.489 9.83 2.489ZM340.198 93V76.293c0-1.404.265-2.639.793-3.705.529-1.067 1.272-1.905 2.229-2.516.957-.61 2.073-.916 3.35-.916 1.95 0 3.463.634 4.538 1.9 1.076 1.268 1.614 3.013 1.614 5.237V93h6.808V74.953c0-2.333-.419-4.361-1.258-6.084-.838-1.723-2.023-3.062-3.554-4.02-1.531-.956-3.345-1.435-5.442-1.435-2.15 0-3.987.474-5.51 1.422-1.522.948-2.665 2.297-3.431 4.047h-.137v-15.34h-6.808V93h6.808Zm37.926.574c2.844 0 5.314-.601 7.41-1.804 2.097-1.204 3.723-2.93 4.881-5.182 1.158-2.251 1.736-4.945 1.736-8.08v-.055c0-3.117-.583-5.797-1.75-8.039-1.166-2.242-2.802-3.97-4.908-5.182-2.105-1.212-4.57-1.818-7.396-1.818-2.808 0-5.26.606-7.356 1.818-2.096 1.213-3.728 2.944-4.894 5.196-1.167 2.251-1.75 4.926-1.75 8.025v.055c0 3.117.578 5.801 1.736 8.053 1.158 2.25 2.784 3.983 4.88 5.195 2.097 1.212 4.567 1.818 7.411 1.818Zm.027-5.496c-1.44 0-2.693-.374-3.76-1.121-1.066-.747-1.895-1.837-2.488-3.268-.592-1.43-.888-3.158-.888-5.181v-.055c0-2.005.296-3.719.888-5.14.593-1.422 1.422-2.507 2.489-3.254 1.066-.748 2.301-1.121 3.705-1.121 1.44 0 2.693.373 3.76 1.12 1.066.748 1.89 1.833 2.474 3.254.583 1.422.875 3.136.875 5.141v.055c0 2.023-.287 3.75-.861 5.181-.575 1.431-1.39 2.52-2.448 3.268-1.057.747-2.306 1.121-3.746 1.121Zm22.23-28.219c1.076 0 1.979-.364 2.708-1.093.729-.73 1.094-1.605 1.094-2.625 0-1.04-.365-1.919-1.094-2.639-.73-.72-1.632-1.08-2.707-1.08-1.057 0-1.95.36-2.68 1.08-.729.72-1.094 1.6-1.094 2.639 0 1.02.365 1.895 1.094 2.625.73.729 1.623 1.093 2.68 1.093ZM403.802 93V64.016h-6.809V93h6.809Zm18.867.574c2.443 0 4.585-.47 6.426-1.408 1.84-.939 3.308-2.21 4.402-3.814 1.094-1.605 1.732-3.41 1.914-5.415l.027-.19h-6.425l-.055.245c-.31 1.513-.998 2.74-2.064 3.678-1.067.939-2.466 1.408-4.198 1.408-1.422 0-2.666-.378-3.732-1.135-1.067-.756-1.896-1.845-2.488-3.267-.593-1.422-.89-3.136-.89-5.14v-.028c0-1.987.293-3.692.876-5.113.583-1.422 1.408-2.52 2.475-3.295 1.066-.775 2.31-1.162 3.732-1.162 1.805 0 3.231.496 4.28 1.49a6.576 6.576 0 0 1 1.982 3.595l.054.22h6.399v-.192a10.987 10.987 0 0 0-1.805-5.305c-1.057-1.604-2.515-2.894-4.375-3.869-1.86-.975-4.065-1.463-6.617-1.463-2.807 0-5.255.61-7.342 1.832-2.087 1.221-3.705 2.958-4.853 5.21-1.149 2.25-1.723 4.916-1.723 7.997v.027c0 3.1.57 5.78 1.709 8.04 1.14 2.26 2.757 4 4.853 5.222 2.097 1.222 4.576 1.832 7.438 1.832Zm29.86 0c1.877 0 3.554-.25 5.03-.752 1.477-.501 2.753-1.18 3.829-2.037 1.075-.857 1.932-1.818 2.57-2.885.638-1.066 1.076-2.155 1.313-3.267l.054-.301h-6.344l-.054.191c-.219.657-.606 1.267-1.162 1.832-.556.566-1.263 1.026-2.12 1.381-.856.356-1.85.534-2.98.534-1.513 0-2.816-.333-3.91-.999-1.094-.665-1.937-1.622-2.53-2.87-.546-1.153-.84-2.527-.883-4.123l-.002-.102h20.286v-2.188c0-2.916-.542-5.468-1.627-7.656-1.085-2.187-2.634-3.887-4.648-5.1-2.015-1.212-4.398-1.818-7.15-1.818-2.772 0-5.173.629-7.206 1.887-2.032 1.258-3.61 3.021-4.73 5.29-1.121 2.27-1.682 4.927-1.682 7.972v.027c0 3.062.556 5.715 1.668 7.957 1.112 2.242 2.712 3.974 4.799 5.195 2.087 1.222 4.58 1.832 7.478 1.832Zm6.483-17.937h-13.59l.046-.369c.14-.992.393-1.881.758-2.666.592-1.276 1.412-2.238 2.46-2.885 1.049-.647 2.247-.97 3.596-.97 1.331 0 2.507.314 3.528.942 1.02.63 1.823 1.573 2.406 2.83.375.81.63 1.75.763 2.822l.033.296Z" fill="#497557" fill-rule="nonzero"/></g></svg>