<svg width="160" height="126" xmlns="http://www.w3.org/2000/svg"><path d="M80.035 68.843c1.574 0 3.09-.394 4.548-1.18 1.458-.787 2.997-1.99 4.618-3.609L150.03 3.331C147.113 1.111 142.322 0 135.656 0H23.372C17.122 0 12.655 1.064 9.97 3.192L70.87 64.054c1.666 1.62 3.229 2.822 4.687 3.609 1.458.786 2.951 1.18 4.479 1.18zM2.138 113.472l51.037-51.218L2.621 11.869C.874 14.603 0 18.865 0 24.657v76.931c0 5.374.713 9.336 2.138 11.884zm155.721-.475c1.427-2.574 2.141-6.503 2.141-11.789V24.891c0-5.745-.852-9.927-2.555-12.547l-50.62 49.844 51.034 50.809zm-21.27 12.819c6.595 0 11.392-1.263 14.39-3.79L98.814 70.266l-3.667 3.653c-4.843 4.686-9.825 7.03-14.944 7.03-5.166 0-10.147-2.344-14.944-7.03l-3.667-3.584-52.096 51.69c3.182 2.527 8.256 3.79 15.22 3.79H136.59z" fill="#000" fill-rule="nonzero"/></svg>