<svg width="160" height="160" xmlns="http://www.w3.org/2000/svg"><path d="M148.571 0H11.393C5.107 0 0 5.179 0 11.536v136.928C0 154.821 5.107 160 11.393 160H148.57c6.286 0 11.429-5.179 11.429-11.536V11.536C160 5.179 154.857 0 148.571 0zM48.357 137.143H24.643V60.786h23.75v76.357h-.036zM36.5 50.357c-7.607 0-13.75-6.178-13.75-13.75 0-7.571 6.143-13.75 13.75-13.75 7.571 0 13.75 6.179 13.75 13.75 0 7.607-6.143 13.75-13.75 13.75zm100.75 86.786h-23.714V100c0-8.857-.179-20.25-12.322-20.25-12.357 0-14.25 9.643-14.25 19.607v37.786H63.25V60.786H86v10.428h.321c3.179-6 10.929-12.321 22.465-12.321 24 0 28.464 15.821 28.464 36.393v41.857z" fill="#2867B2" fill-rule="nonzero"/></svg>