<svg width="222" height="226" xmlns="http://www.w3.org/2000/svg"><path d="M73.48 226c6.769 0 13.831-.81 21.188-2.428 7.357-1.618 12.8-4.34 16.332-8.166h4.855c2.649 0 4.562.147 5.739.442l16.332 4.855c3.237.883 7.283 1.692 12.138 2.428 4.856.736 9.49 1.103 13.905 1.103 20.01 0 32.664-4.12 37.96-12.359.59-.294.883-1.03.883-2.207l.883-1.766c-.882-3.53-2.427-6.253-4.634-8.166-2.207-1.912-5.077-3.678-8.608-5.297-3.531-1.618-6.18-3.31-7.945-5.076 6.18-5.59 11.77-14.86 16.773-27.808l.442-.883.441.441 3.09 5.297 1.766 3.531 2.207 3.09c.882.883 1.765 1.619 2.648 2.207.883.589 1.618.883 2.207.883 3.237 0 5.665-2.354 7.283-7.062 1.619-4.709 2.428-8.829 2.428-12.36 0-9.122-1.84-17.95-5.518-26.484-3.678-8.534-8.754-17.51-15.228-26.926l-.883-1.766c0-.882.368-2.427 1.104-4.634.735-2.207 1.103-3.9 1.103-5.076 0-5.592-2.354-11.918-7.062-18.981l-2.649-12.8c-.883-3.532-1.986-7.358-3.31-11.477-1.325-4.12-2.722-7.651-4.194-10.594-1.471-2.943-3.237-6.033-5.297-9.27-2.06-3.237-4.34-6.106-6.841-8.607-2.502-2.501-5.444-4.855-8.829-7.063-3.384-2.207-7.136-4.193-11.255-5.959C141.75 2.354 130.569 0 119.387 0c-15.597 0-29.28 2.796-41.051 8.387-10.594 5.002-19.79 13.757-27.588 26.263-7.798 12.507-11.697 24.646-11.697 36.416-1.177 1.177-2.06 3.017-2.649 5.518-.588 2.501-.882 4.782-.882 6.842-1.178 1.177-2.208 3.016-3.09 5.517-.883 2.502-1.325 4.488-1.325 5.96 0 2.942.295 5.15.883 6.62C10.801 117.708.207 137.277.207 160.23c0 4.12 1.03 8.387 3.09 12.801.294 0 .515.221.662.662.147.442.368.662.662.662l.407-.039c3.379-.375 6.554-1.907 9.525-4.595 3.09-2.796 5.37-5.96 6.842-9.49.588-1.766 1.03-2.649 1.324-2.649l.883.441c1.177 5.297 4.266 11.918 9.27 19.864 5.002 7.945 9.563 12.36 13.683 13.242v.883h-1.766c-1.766.294-3.899.883-6.4 1.765a375.398 375.398 0 0 1-5.077 1.766c-2.648 2.354-4.414 4.34-5.296 5.959-.883 1.618-1.325 4.046-1.325 7.283s1.398 5.96 4.194 8.166c2.795 2.207 5.959 3.9 9.49 5.076 3.531 1.177 7.798 2.06 12.8 2.649 5.003.588 8.829.883 11.477.883l8.828.441z" fill="#7CC5F1" fill-rule="nonzero"/></svg>