<svg width="226" height="216" xmlns="http://www.w3.org/2000/svg"><path d="M50.203 92.55a24.574 24.574 0 0 1 1.764-.349l.39-.064c5.782-.937 19.999-2.417 42.649-4.442 26.337-2.354 51.424-.882 75.26 4.414l-72.832 51.204c1.765.294 11.918 1.103 30.457 2.427s33.694 1.545 45.464.662l-1.324-10.152 52.528-48.996c1.177-1.471 1.471-3.09.882-4.856-.588-1.765-1.912-2.795-3.972-3.09l-72.39-6.62-31.782-69.743c-.883-1.765-2.28-2.648-4.193-2.648-1.913 0-3.311.883-4.194 2.648L76.246 70.922l-71.95 8.387c-2.059.294-3.383 1.397-3.972 3.31-.588 1.913-.147 3.458 1.324 4.635l53.41 48.996-13.242 73.715c-.294 2.06.295 3.678 1.766 4.855.883.589 1.766.883 2.648.883.883 0 1.766-.147 2.649-.441l64.887-37.52 63.562 37.961c1.766.589 3.458.294 5.076-.883 1.619-1.177 2.28-2.648 1.987-4.414l-9.711-54.734c1.471-.589 3.678-1.692 6.62-3.31 2.943-1.62 5.445-3.605 7.505-5.96-2.943 1.177-5.444 2.06-7.504 2.649-1.913.546-4.206 1.093-6.88 1.64l-.624.125a337.93 337.93 0 0 1-71.067 3.973c-23.835-1.177-37.225-2.06-40.168-2.648l72.391-52.97c-14.125-2.353-30.898-4.045-50.32-5.075-19.422-1.03-30.899-1.545-34.43-1.545z" fill="#F4C031" fill-rule="nonzero"/></svg>