<svg width="160" height="130" xmlns="http://www.w3.org/2000/svg"><path d="M143.554 32.386c.101 1.421.101 2.843.101 4.264 0 43.35-32.995 93.3-93.3 93.3-18.578 0-35.837-5.381-50.355-14.721 2.64.304 5.178.406 7.919.406 15.33 0 29.441-5.178 40.71-14.01-14.416-.305-26.497-9.747-30.66-22.742 2.031.305 4.061.508 6.194.508 2.944 0 5.888-.406 8.629-1.117C17.767 75.228 6.497 62.031 6.497 46.091v-.406a33.025 33.025 0 0 0 14.822 4.163C12.487 43.959 6.7 33.908 6.7 22.538A32.545 32.545 0 0 1 11.167 5.99C27.31 25.888 51.574 38.883 78.782 40.305c-.508-2.437-.813-4.975-.813-7.513C77.97 14.721 92.59 0 110.761 0c9.442 0 17.97 3.96 23.96 10.355a64.561 64.561 0 0 0 20.812-7.918c-2.437 7.614-7.614 14.01-14.416 18.07 6.599-.71 12.995-2.538 18.883-5.075-4.466 6.497-10.05 12.283-16.446 16.954z" fill="#1DA1F2" fill-rule="nonzero"/></svg>