<svg width="259" height="211" xmlns="http://www.w3.org/2000/svg"><path d="m27.367 167.797 32.223-15.89 12.8 2.648 5.739.882c2.648.295 5.003.589 7.062.883h6.18c2.943 0 5.886-.147 8.828-.441a59.642 59.642 0 0 1-3.09-18.98c0-13.243 3.458-25.381 10.373-36.417 6.916-11.035 16.332-19.79 28.25-26.263 11.918-6.474 24.94-9.711 39.065-9.711 3.237 0 6.18.147 8.828.441-2.648-12.065-8.387-23.026-17.215-32.885-8.828-9.858-19.863-17.509-33.105-22.953C120.062 3.667 106.085.945 91.37.945c-16.48 0-31.708 3.384-45.685 10.153-13.978 6.768-25.087 16.111-33.327 28.029C4.12 51.045 0 64.214 0 78.633c0 24.13 12.212 44.729 36.637 61.797l-9.27 27.367zM61.355 62.3c-3.53 0-6.62-1.03-9.27-3.09-2.648-2.06-3.972-4.782-3.972-8.166 0-3.384 1.325-6.106 3.973-8.166 2.648-2.06 5.812-3.09 9.49-3.09 3.679 0 6.548 1.03 8.608 3.09 2.06 2.06 3.09 4.855 3.09 8.387 0 3.237-1.104 5.885-3.311 7.945-2.207 2.06-5.076 3.09-8.608 3.09zm64.446 0c-3.531 0-6.695-1.03-9.49-3.09-2.796-2.06-4.194-4.782-4.194-8.166 0-3.384 1.398-6.106 4.194-8.166 2.795-2.06 5.959-3.09 9.49-3.09 3.531 0 6.327 1.03 8.386 3.09 2.06 2.06 3.09 4.855 3.09 8.387 0 3.237-1.03 5.885-3.09 7.945-2.06 2.06-4.855 3.09-8.386 3.09zm107.261 148.754-6.62-22.512c9.71-7.357 17.435-15.523 23.173-24.498 5.739-8.975 8.608-18.466 8.608-28.47 0-11.772-3.605-22.807-10.815-33.106-7.21-10.3-16.773-18.392-28.691-24.278-11.918-5.885-24.645-8.828-38.182-8.828-14.125 0-27.146 2.943-39.064 8.828-11.918 5.886-21.335 13.978-28.25 24.278-6.916 10.3-10.373 21.408-10.373 33.326s3.457 22.953 10.373 33.105c6.915 10.153 16.332 18.245 28.25 24.278 11.918 6.032 24.94 9.049 39.064 9.049 5.886 0 15.155-1.619 27.809-4.856l24.719 13.684zm-77.687-86.957c-2.354 0-4.488-.883-6.4-2.649-1.913-1.765-2.87-3.825-2.87-6.18 0-2.354.957-4.487 2.87-6.4 1.912-1.913 4.046-2.869 6.4-2.869 3.531 0 6.327.956 8.387 2.87 2.06 1.912 3.09 4.045 3.09 6.4 0 2.354-1.104 4.414-3.311 6.18-2.207 1.765-4.929 2.648-8.166 2.648zm50.32 0c-2.354 0-4.487-.883-6.4-2.649-1.913-1.765-2.87-3.825-2.87-6.18 0-2.354.957-4.487 2.87-6.4 1.913-1.913 4.046-2.869 6.4-2.869 3.237 0 5.96.956 8.166 2.87 2.207 1.912 3.31 4.045 3.31 6.4 0 2.354-1.103 4.414-3.31 6.18-2.207 1.765-4.929 2.648-8.166 2.648z" fill="#71C267" fill-rule="nonzero"/></svg>