<svg width="226" height="184" xmlns="http://www.w3.org/2000/svg"><path d="M218.938 83.834c1.97-.985 3.267-2.576 3.891-4.773l.081-.303c3.237-10.005 3.826-20.158 1.766-30.457-2.06-10.3-6.768-19.716-14.125-28.25-7.651-8.24-16.48-13.905-26.485-16.994-9.772-3.018-19.685-3.44-29.738-1.264l-.719.16c-2.354.589-4.193 1.84-5.517 3.752-1.324 1.913-1.692 4.046-1.104 6.4.589 2.355 1.84 4.12 3.752 5.297 1.913 1.177 4.046 1.619 6.4 1.325 7.357-1.472 14.64-1.104 21.85 1.103 7.21 2.207 13.463 6.253 18.76 12.139 5.297 5.885 8.681 12.506 10.152 19.863 1.427 7.134 1.055 14.13-1.115 20.986l-.209.643c-.588 2.354-.368 4.561.662 6.621 1.03 2.06 2.722 3.458 5.076 4.193 2.355.736 4.562.589 6.621-.441zM94.901 183.371c31.193-.883 55.912-8.019 74.157-21.408 18.244-13.39 27.661-27.588 28.25-42.596-.295-8.534-3.237-15.302-8.829-20.305-5.59-5.002-11.77-8.533-18.539-10.593-1.765-.295-3.016-.81-3.752-1.545-.735-.736-.809-2.134-.22-4.194 3.825-9.122 3.825-16.405 0-21.85-3.826-5.443-10.226-8.165-19.201-8.165-8.976 0-19.349 2.501-31.12 7.504-.294 0-1.397.22-3.31.662-1.913.441-2.575-.662-1.986-3.31 3.825-11.772 2.942-20.6-2.649-26.485-6.768-6.18-17.068-6.548-30.898-1.104-13.831 5.444-28.25 15.376-43.258 29.795C22.953 70.665 14.714 81.553 8.828 92.441 2.943 103.33 0 113.63 0 123.34c.883 18.833 10.814 33.547 29.795 44.14 18.98 10.594 40.683 15.891 65.107 15.891zm95.344-109.91c1.766-.883 2.943-2.207 3.531-3.973 1.472-5.002 1.766-10.005.883-15.008-.883-5.002-3.237-9.563-7.062-13.683-3.532-4.12-7.725-6.915-12.58-8.387-4.856-1.471-9.785-1.618-14.788-.441-2.06.294-3.678 1.324-4.855 3.09-1.177 1.765-1.545 3.678-1.104 5.738.442 2.06 1.545 3.605 3.311 4.635 1.662.969 3.454 1.352 5.376 1.148l.362-.045c5.003-1.177 9.343.294 13.022 4.414 3.59 4.022 4.728 8.464 3.411 13.327l-.1.357c-.59 2.06-.442 3.972.44 5.738.884 1.766 2.355 2.943 4.415 3.531 2.06.589 3.972.442 5.738-.441zm-144.34 88.281c-13.536-7.062-21.187-16.92-22.953-29.574-.883-12.654 4.635-23.762 16.553-33.326 11.918-9.564 27.44-15.302 46.568-17.215 19.128-1.913 35.533.662 49.217 7.725 13.684 7.062 21.408 16.92 23.174 29.574.588 12.653-5.076 23.762-16.994 33.326s-27.441 15.523-46.569 17.877c-19.127 1.471-35.46-1.324-48.996-8.387zm52.969-3.531c9.122-3.826 15.67-10.152 19.643-18.98 3.972-8.829 3.972-16.921 0-24.278-3.973-7.357-10.52-12.36-19.643-15.008-9.417-2.06-18.392-1.25-26.926 2.428-8.534 3.678-14.787 9.637-18.76 17.877-3.972 8.24-4.34 16.038-1.103 23.395 3.237 7.356 9.417 12.653 18.539 15.89 9.71 2.943 19.128 2.501 28.25-1.324zm-8.166-30.678c-2.501-1.03-3.016-2.722-1.545-5.076 1.471-2.354 3.458-3.09 5.959-2.207 2.501.883 3.163 2.648 1.986 5.297-1.765 2.354-3.899 3.016-6.4 1.986zm-22.732 18.98c-2.943-1.324-4.782-3.383-5.518-6.179-.736-2.796-.147-5.665 1.766-8.607 1.912-2.943 4.414-4.93 7.504-5.96 3.09-1.03 6.106-.882 9.048.442 2.943 1.324 4.856 3.384 5.739 6.18.882 2.795.441 5.664-1.325 8.607-2.06 2.943-4.708 4.93-7.945 5.96-3.237 1.029-6.327.882-9.27-.442z" fill="#F6883E" fill-rule="nonzero"/></svg>