<svg width="160" height="161" xmlns="http://www.w3.org/2000/svg"><path d="m0 160.792 11.3-41.29C4.327 107.416.663 93.715.67 79.666.69 35.743 36.426 0 80.335 0c21.308.007 41.31 8.308 56.354 23.368C151.727 38.43 160.007 58.448 160 79.74c-.02 43.93-35.757 79.673-79.665 79.673-13.33-.007-26.466-3.35-38.101-9.701L0 160.792zm44.19-25.506c11.227 6.667 21.944 10.66 36.118 10.666 36.493 0 66.221-29.706 66.241-66.226.014-36.594-29.573-66.26-66.187-66.273-36.52 0-66.228 29.706-66.242 66.22-.006 14.906 4.361 26.068 11.696 37.745l-6.692 24.44 25.066-6.572zm76.276-36.607c-.496-.83-1.822-1.326-3.819-2.324-1.99-.999-11.776-5.816-13.604-6.479-1.822-.663-3.149-.998-4.482.998-1.326 1.99-5.144 6.479-6.303 7.805-1.159 1.327-2.324 1.494-4.314.496-1.99-.998-8.406-3.095-16.009-9.882-5.915-5.28-9.914-11.798-11.073-13.794-1.158-1.99-.12-3.069.871-4.06.898-.891 1.99-2.325 2.988-3.49 1.011-1.153 1.34-1.984 2.01-3.317.662-1.327.334-2.493-.168-3.49-.503-.992-4.481-10.794-6.136-14.78-1.621-3.88-3.262-3.357-4.481-3.417l-3.818-.067c-1.327 0-3.484.496-5.306 2.492-1.822 1.997-6.966 6.807-6.966 16.609 0 9.801 7.134 19.268 8.125 20.594.998 1.327 14.034 21.44 34.002 30.062 4.749 2.05 8.46 3.276 11.347 4.194 4.77 1.514 9.11 1.3 12.54.79 3.824-.57 11.775-4.817 13.437-9.466 1.66-4.657 1.66-8.643 1.159-9.474z" fill="#24D366" fill-rule="nonzero"/></svg>